HIERARCHY
ROOT RootJoint
{
    OFFSET   0.000000   0.000000   0.000000
    CHANNELS 6 Xposition Yposition Zposition Xrotation Yrotation Zrotation
    JOINT lHip
    {
        OFFSET   0.100000  -0.051395   0.000000
        CHANNELS 3 Xrotation Yrotation Zrotation
        JOINT lKnee
        {
            OFFSET   0.000000  -0.410000   0.000000
            CHANNELS 3 Xrotation Yrotation Zrotation
            JOINT lAnkle
            {
                OFFSET   0.000000  -0.390000   0.000000
                CHANNELS 3 Xrotation Yrotation Zrotation
                JOINT lToeJoint
                {
                    OFFSET   0.000000  -0.050000   0.130000
                    CHANNELS 3 Xrotation Yrotation Zrotation
                    End Site
                    {
                        OFFSET   0.010000   0.002000   0.060000
                    }
                }
            }
        }
    }
    JOINT rHip
    {
        OFFSET  -0.100000  -0.051395   0.000000
        CHANNELS 3 Xrotation Yrotation Zrotation
        JOINT rKnee
        {
            OFFSET   0.000000  -0.410000   0.000000
            CHANNELS 3 Xrotation Yrotation Zrotation
            JOINT rAnkle
            {
                OFFSET   0.000000  -0.390000   0.000000
                CHANNELS 3 Xrotation Yrotation Zrotation
                JOINT rToeJoint
                {
                    OFFSET   0.000000  -0.050000   0.130000
                    CHANNELS 3 Xrotation Yrotation Zrotation
                    End Site
                    {
                        OFFSET  -0.010000   0.002000   0.060000
                    }
                }
            }
        }
    }
    JOINT pelvis_lowerback
    {
        OFFSET   0.000000   0.093605   0.000000
        CHANNELS 3 Xrotation Yrotation Zrotation
        JOINT lowerback_torso
        {
            OFFSET   0.000000   0.100000   0.000000
            CHANNELS 3 Xrotation Yrotation Zrotation
            JOINT torso_head
            {
                OFFSET   0.000000   0.282350   0.000000
                CHANNELS 3 Xrotation Yrotation Zrotation
                End Site
                {
                    OFFSET   0.000000   0.192650   0.000000
                }
            }
            JOINT lTorso_Clavicle
            {
                OFFSET   0.001000   0.157500   0.000000
                CHANNELS 3 Xrotation Yrotation Zrotation
                JOINT lShoulder
                {
                    OFFSET   0.117647   0.000000   0.000000
                    CHANNELS 3 Xrotation Yrotation Zrotation
                    JOINT lElbow
                    {
                        OFFSET   0.245000   0.000000   0.000000
                        CHANNELS 3 Xrotation Yrotation Zrotation
                        JOINT lWrist
                        {
                            OFFSET   0.240000   0.000000   0.000000
                            CHANNELS 3 Xrotation Yrotation Zrotation
                            End Site
                            {
                                OFFSET   0.116353  -0.002500   0.000000
                            }
                        }
                    }
                }
            }
            JOINT rTorso_Clavicle
            {
                OFFSET  -0.001000   0.157500   0.000000
                CHANNELS 3 Xrotation Yrotation Zrotation
                JOINT rShoulder
                {
                    OFFSET  -0.117647   0.000000   0.000000
                    CHANNELS 3 Xrotation Yrotation Zrotation
                    JOINT rElbow
                    {
                        OFFSET  -0.245000   0.000000   0.000000
                        CHANNELS 3 Xrotation Yrotation Zrotation
                        JOINT rWrist
                        {
                            OFFSET  -0.240000   0.000000   0.000000
                            CHANNELS 3 Xrotation Yrotation Zrotation
                            End Site
                            {
                                OFFSET  -0.116353  -0.002500   0.000000
                            }
                        }
                    }
                }
            }
        }
    }
}
MOTION
Frames: 15
Frame Time:   0.010000
  0.000000   0.000000   0.000000   0.000000   0.000000   0.000000   0.000000   0.000000   0.000000   0.000000   0.000000   0.000000   0.000000   0.000000   0.000000   0.000000   0.000000   0.000000   0.000000   0.000000   0.000000   0.000000   0.000000   0.000000   0.000000   0.000000   0.000000   0.000000   0.000000   0.000000   0.000000   0.000000   0.000000   0.000000   0.000000   0.000000   0.000000   0.000000   0.000000   0.000000   0.000000   0.000000   0.000000   0.000000   0.000000   0.000000   0.000000   0.000000   0.000000   0.000000   0.000000   0.000000   0.000000   0.000000   0.000000   0.000000   0.000000   0.000000   0.000000   0.000000   0.000000   0.000000   0.000000
  3.141593   3.141593   3.141593  18.651504   1.522355  -3.565306 -33.608445  21.418174  -5.144450  32.537345   4.507823   0.343303   0.111007  -3.680916 -16.001879  -4.942751  -8.964574  -4.858130 -37.039498 -20.021659   9.888555  31.883369   0.312162 -19.414228  -3.121761  16.531749  -3.493392 -18.281189  -3.886508  -7.654220  18.443008  -5.026912   1.242024  23.844720 -10.786610  17.227914   6.834283   0.764706   0.698176  18.117596  -3.289291 -30.463225  17.938189 -31.182328 -58.363386 -18.022967 -51.756248  -2.597723  -2.091028 -17.240249 -26.031049  -1.803442 -19.026195  37.640676   5.325282  35.743694  61.603126  -2.408077  43.058427 -17.950412  25.028165  12.233148  19.251856
  3.141593   3.141593   3.141593 -142.253309 -70.766883 -176.964596 -25.337520  23.365570  -5.573727  48.912167  -6.593895   2.517013 -14.238934  -9.932702   8.764183   3.836618 -10.487980  -5.316839 -13.979776 -23.270525 -23.171613  39.362229 -11.524527 -14.403611  -3.827663  -6.983802 -15.362349   1.033423  22.330181  -9.814920  -1.773250  15.545916  -4.685037   2.397669 -14.418651 -14.243560  26.227600  -8.988766  16.837381  -9.185833 -11.827753 -23.663476  19.415263 -41.686937 -53.524878 -20.541428 -49.480402 -15.193409  -3.514730   7.517687  -4.006342   5.648116   6.442633  34.223141   7.378951  34.117905  57.056836   2.463512  29.054415  -9.148185  16.139194   2.177296 -16.681861
  3.141593   3.141593   3.141593   0.638240 -16.973605 -10.571535 -29.575451  20.153461   4.223852  46.247145  -6.742248  -3.995250   0.039231  -4.234166 -12.923227  -4.563752  -0.182972 -10.832685 -11.594422 -17.271685  -5.086168  43.221037  -6.484820  -3.200554  12.201918  -7.131447  13.149004   2.809919   0.236350  -9.849279  14.634223  -3.040923   8.082665   1.444401  21.772630  -1.810018  18.342647  -0.141120 -10.856492   4.015456   1.704123 -40.918621  29.112416 -46.482082 -53.330897   9.889859 -50.448076  26.633739  33.216718  18.498816 -14.235012  13.529720   6.674664  18.554440  15.887609  21.051052  59.442984  10.849344  46.477511 -26.908659   2.638650  -5.486896 -19.475325
  3.141593   3.141593   3.141593   9.712458 -33.640755   3.914255 -35.773607  31.800084   9.455707  41.687869 -10.724282  -0.319275   6.449594  14.773752  -3.348259  -9.851882 -17.867944   3.688341 -36.869508 -25.044538 -17.986404  44.331386 -17.400904  -5.655537  23.854134  -4.798850  27.029258  18.014423  15.527069  10.135285  23.684643  11.256785 -16.794128  13.583260 -13.819697  18.787881  10.145663  -5.116842 -32.568656   5.188946  10.369090 -28.693173  21.306914 -32.422493 -53.028057 -19.880098 -50.456353  -5.627790  27.699052  13.190343   4.605619  -0.954645  -5.072217  20.410734  20.026260  35.254909  51.019097 -23.737287  43.065318   1.433303  20.938993  -5.575407 -18.334167
  3.141593   3.141593   3.141593 -46.358280 -48.680608 -39.547945 -24.694873   6.784455  -4.434660  40.450302 -17.953655   9.903288  10.807624  -2.951797   4.122626  -3.600376  -0.044772   5.021396 -32.867725 -14.944785 -12.431469  40.573130   4.499306 -11.473763   1.599411  -5.923537 -14.159340   4.753767  15.032961  12.539220   2.784701  -0.164879  18.690973  13.847381  14.141739   5.171109  30.445824 -26.145835  -7.912311   9.748244   2.748218 -19.407534  21.836468 -39.150062 -58.780747 -10.384721 -45.821619 -13.467019  24.755314  13.563769  -1.210168  -1.029739  -6.172207  41.226311  18.191891  34.724796  50.746657  -1.960569  35.662603 -16.254546  21.622896  18.331111 -21.068888
  3.141593   3.141593   3.141593 -13.704022 -13.382263 -23.271020 -36.382674  10.564887  -5.656177  36.086067 -11.663715   1.490613 -14.826893  10.674873  -2.099311   5.349050   7.578183  17.199386 -26.694294 -32.594177  -4.585271  44.071228   5.087683  -4.821417 -10.504615 -18.422777   7.865380  -6.370697  -1.359282   9.285717  -6.083767 -15.843839  -4.913542  11.045971 -19.011485  -1.656684  11.853003  18.636389  -5.677191  -3.600040  -2.565470  -6.546723  12.884474 -30.385191 -57.799770 -18.403021 -45.161047   9.741391  -4.098901   6.345669   1.630982 -24.044165   5.744718  19.007038  15.517450  36.123382  56.645295 -14.303642  46.494358  -4.046252  -0.459622  -7.982518  -7.487686
  3.141593   3.141593   3.141593 -22.146185 -37.170529 -41.128600 -26.906694  38.318062   3.059945  52.463851   2.659631   6.575510   3.812077 -12.728406   6.907095   5.002764  17.056232   9.559916 -18.460950  -9.561117 -25.572892  35.337593   4.572308 -15.752411   4.199098  -9.108934   7.401921   5.163725  -2.400003 -10.210330  -1.370339 -18.150276  12.125811   5.556161 -21.335902  -7.533425  20.138740  20.562887  -6.749490  12.944088  12.914075 -26.243295  12.110358 -41.641766 -60.431798 -10.616502 -40.680638  -2.123394  14.820947  -7.567375   6.539878  -9.779908  14.561168  22.829596  19.882535  47.653645  42.590657  13.786050  43.929232 -21.213338  17.796263  20.829064   1.308180
  3.141593   3.141593   3.141593   3.084458 -34.540259  13.411826 -19.063698   3.504227  -6.507644  34.375278  -2.861377  25.056843  -9.030638   0.340379   2.885896  -2.905806  -5.870155  -9.344445  -7.068431 -21.434896   9.651428  47.013634  -3.150591 -17.204250   1.463217   2.136113  11.866522  32.460944 -11.184571  -7.685041  -1.864450 -18.115954 -12.131497  16.653503  11.197412   2.063168  31.943515 -20.341792  18.780585  -2.684808   3.017095 -12.442173  27.170301 -26.317086 -53.766106 -13.095495 -55.076481   1.202107   4.534690  20.028350   7.748255   7.161616 -12.723364  29.944830   9.307269  25.940052  61.441754  41.637693  47.208272 -24.947955   3.483300   8.083024 -20.300973
  3.141593   3.141593   3.141593   9.445327 -17.423480  -7.522785 -24.696092  38.454172  -8.268401  50.845662 -11.297709   4.200265 -16.738212 -11.312827 -13.042188  18.652628  -9.823584  -0.075003 -10.926944 -22.435582   4.162857  28.280614  -8.611302 -13.750253  -6.173822 -11.132905  16.482698  -6.311896  -4.032145 -12.727995  -2.831706  -7.192278   1.615352  15.629338  -4.764050  -7.681057  22.657230   6.349397  -5.809266 -14.505576   2.679642 -30.233798  27.324614 -39.559005 -48.888277  10.569783 -51.776119  27.576835  22.794737 -11.790829  -9.251268  -5.651385  -6.964649  27.719923  18.188847  28.147994  62.033606  -5.219304  47.450948  -9.678858 -10.113898   3.724178  17.346533
  3.141593   3.141593   3.141593 -122.126797 -52.411538 -100.919483  -9.537793  25.771841  -7.429557  48.392360  -2.735287  16.591994  -6.426041   3.190021 -14.404991  -3.977852  11.107765  -8.387404 -42.180690 -14.632582  -7.671563  45.546413 -11.592621  -5.764168  19.770818   3.970431  -0.534442  -8.531227  11.964209 -17.499942  -2.263284 -12.163633 -20.135978  10.819207 -13.454342  -7.679585   6.509415 -12.998174 -10.667105  -7.658289  15.198008 -12.665490  20.095891 -26.336229 -53.016607 -18.002949 -28.173482  11.765820   4.679054  -2.045012   4.306773  -5.894261  13.541136  19.675888  19.857427  26.046178  58.072930   1.859797  38.855047  -8.912040   9.876055   8.658307   5.764722
  3.141593   3.141593   3.141593  23.665121 -41.697208  -3.676658 -38.963230  22.371440  -1.733507  40.812742 -12.368595  26.945010   2.871293 -13.209745 -20.673782   2.494241  -9.836892   0.193139 -21.543544 -20.103443   6.484330  39.776997  -3.026851 -15.678225  11.417999 -21.640335   3.697268  12.678822  -6.590665 -13.603862 -14.852589   9.477824  -6.893858  14.432229 -14.026260   9.455030  15.792533  19.421931  -6.424624  -5.742048  -6.850386 -33.504324   6.189571 -40.623646 -55.646371   0.726860 -49.586380  -4.551899   6.802322   6.798391 -11.696033  -1.652119  -1.043346  28.724684  33.933123  19.191593  51.463427  -6.776181  36.549006   2.727799  15.166716 -13.009576 -12.777674
  3.141593   3.141593   3.141593 -13.669938 -33.914946 -28.993984 -37.926602   8.665456 -17.256020  52.479348   5.645015   3.905083  -7.957809 -18.472269  -5.542080  -7.821314   1.343431 -16.831703 -27.605776 -10.445578   5.332626  50.303922  12.642000 -13.424149  -0.985157  -3.410971  -7.346173   9.323479  13.255148  15.686920  -0.042975 -10.506295   0.056537  10.603266  -4.527531 -11.664385   9.094622  -4.588180  -8.607441  -9.405878 -12.583728 -34.056341  27.039064 -45.845004 -48.958247  -5.836234 -43.797275   8.740372  -6.987473  21.396369 -13.444627  -6.187686  -7.167850  14.865978  24.193389  23.278168  55.328977 -29.680849  47.610534   3.336139  15.533370  10.015058 -13.032567
  3.141593   3.141593   3.141593   6.479254 -41.833584  46.654264 -20.428510  10.959931 -19.803334  44.788141  -3.947334  21.548869  -4.132951  12.925196  12.694335   2.494970  -5.632783  21.335478 -23.563291 -21.731694 -14.039305  41.972614 -20.579119 -13.396735  -1.941787 -20.967583  19.350682  -4.439036   3.275476  10.017530  -3.044530   0.717959  -6.132645  10.732466  -7.814621 -16.961463  17.420098  -1.624462  -7.211288   0.384002  -7.467348 -17.264132  15.086633 -40.417674 -55.297431   1.491521 -55.162053   3.054822  15.578825   7.946857 -17.237099 -12.785403 -11.735343  35.838171  20.326676  41.525606  55.082229  -2.070684  34.762633 -17.362013  -2.938730   4.117146 -17.805817
  3.141593   3.141593   3.141593  89.686073 -69.497386  97.799227 -24.902051  17.206370   5.494172  38.940050   1.992776  -7.142037   8.902167  -6.809408 -22.398269  11.366828   7.610928  13.579303 -26.981188 -10.151768   0.094357  33.683231 -12.348588  15.002640  -7.800451   8.497911 -12.211987   5.532769   4.382932 -11.270726 -11.990882 -14.125969   0.191115  10.188219  11.593064  13.035747  12.427742   4.050709 -13.026107   4.586242  -7.220749 -32.706754  14.333756 -40.168185 -63.075691   2.896141 -32.279116  31.032437  15.490170  12.977959  -5.192390 -18.347460   9.551651  16.771467  32.195598  38.727773  48.699898  18.381248  30.121529 -26.404175   5.541277   1.433071   0.999824
